PathFileType	4	(X/Y/Z)	D:\Share\Shared_Data\Ergonomics\Sit To Stand Pertubation\S1\Unperturbed_NoHarness.trc
DataRate	CameraRate	NumFrames	NumMarkers	Units	OrigDataRate	OrigDataStartFrame	OrigNumFrames	
100	100	9	18	m	100	1931	241
Frame#	Time	R_Thigh_Med			R_ASIS			R_Pelvis			V_Sacral			L_Pelvis			L_ASIS			Clavical			R_Acromium			L_Acromium			Sternum			Torso			R_Thigh_Lat			R_Thigh			R_Shank_Med			R_Shank_Lat			R_Shank			R_Heel			R_Toe			
		X1	Y1	Z1	X2	Y2	Z2	X3	Y3	Z3	X4	Y4	Z4	X5	Y5	Z5	X6	Y6	Z6	X7	Y7	Z7	X8	Y8	Z8	X9	Y9	Z9	X10	Y10	Z10	X11	Y11	Z11	X12	Y12	Z12	X13	Y13	Z13	X14	Y14	Z14	X15	Y15	Z15	X16	Y16	Z16	X17	Y17	Z17	X18	Y18	Z18	

1931	19.3	0.34795047	0.4213288	0.017829126	0.052654507	0.62801251	0.081064423	-0.030006207	0.63385858	0.11569884	-0.13731561	0.56722253	-0.01759498	-0.034281952	0.63123358	-0.15937207	0.061731922	0.63853802	-0.11967159	0.17697797	0.92544684	-0.017930546	0.1456138	1.0151056	0.13127365	0.079120117	0.99267078	-0.21307396	0.16620036	0.94325928	0.08447097	0.17518126	0.93679834	-0.07570076	0.33433752	0.43308496	0.13637265	0.21150189	0.54516327	0.082921982	0.31847855	0.096390762	0.069637978	0.29021033	0.099909248	0.14786082	0.31651031	0.31093875	0.15619083	0.24382172	0.032429474	0.092160019	0.44822928	0.05219968	0.12026589
1932	19.31	0.34751108	0.42091318	0.017794329	0.053646759	0.62727026	0.081187782	-0.028982107	0.63391418	0.11564229	-0.13678447	0.56774573	-0.017587336	-0.033226124	0.63145636	-0.15923003	0.062949211	0.637849	-0.11962889	0.18206775	0.9225144	-0.017639956	0.15203036	1.0132548	0.13143861	0.085266899	0.99159479	-0.21274585	0.17148244	0.94103223	0.084789032	0.18049445	0.93460406	-0.075196663	0.3344158	0.43300391	0.1364838	0.21173778	0.54485834	0.083745041	0.31838889	0.096385185	0.069674988	0.29013077	0.099908028	0.14788446	0.31654236	0.31089862	0.1562565	0.24378152	0.032360622	0.092174133	0.44817902	0.052303024	0.12026958
1933	19.32	0.34677005	0.42022272	0.017681339	0.054748024	0.62645599	0.081330727	-0.027850462	0.63396814	0.11558517	-0.1361698	0.56833649	-0.017572821	-0.032042774	0.63169604	-0.15906863	0.064285728	0.63712024	-0.11957246	0.18735028	0.91954456	-0.017337006	0.15864607	1.0113165	0.13157973	0.091651337	0.99042297	-0.21242279	0.17698907	0.93871698	0.085116104	0.18600999	0.93231	-0.07467823	0.33452512	0.43290964	0.1365981	0.21195479	0.54454877	0.084434593	0.31829739	0.096379204	0.069715576	0.29004477	0.09991114	0.14791367	0.31659442	0.31085913	0.1563264	0.24373799	0.032284794	0.092192261	0.44812656	0.052421856	0.12027574
1934	19.33	0.34582098	0.41932867	0.01751893	0.055994591	0.62558344	0.081491005	-0.026600773	0.63401849	0.11553036	-0.13546663	0.5689986	-0.01754764	-0.030723875	0.63195197	-0.15888567	0.065741737	0.63635675	-0.11950153	0.19284532	0.91658344	-0.017012043	0.1654407	1.0092757	0.13169655	0.098277534	0.98915881	-0.21210773	0.18271581	0.9363042	0.08544931	0.19173296	0.92990894	-0.074146729	0.33466327	0.43279803	0.13671744	0.21216386	0.5442702	0.08497728	0.31820242	0.096371391	0.069759514	0.28995001	0.099914047	0.14794911	0.31666699	0.31081857	0.15640112	0.24369016	0.032200993	0.092214081	0.44806876	0.052555916	0.12028698
1935	19.34	0.34475241	0.4183024	0.017333925	0.05742017	0.62466583	0.081665619	-0.025219843	0.63406506	0.11548158	-0.13466986	0.5697356	-0.01750951	-0.029260557	0.63222614	-0.15867921	0.067319115	0.63556433	-0.11941583	0.19857474	0.91362805	-0.016658367	0.17240942	1.0071202	0.13178972	0.10514841	0.98780927	-0.21180186	0.18865569	0.93378729	0.085784416	0.19766776	0.9273949	-0.073604073	0.33482697	0.4326676	0.13684477	0.21237785	0.54406305	0.085389595	0.31810229	0.096360733	0.069806694	0.28984509	0.099912971	0.1479919	0.3167601	0.31077563	0.15648227	0.2436369	0.032108059	0.092239182	0.44800311	0.052705616	0.12030746
1936	19.35	0.34363992	0.41720981	0.017148161	0.059039349	0.62371161	0.081851501	-0.023692532	0.63410974	0.11544312	-0.13377365	0.57055225	-0.017458912	-0.02764307	0.63252222	-0.15844749	0.069026581	0.63474603	-0.11931596	0.20455167	0.91064746	-0.016271578	0.17956352	1.0048461	0.13186017	0.11226481	0.98638214	-0.21150461	0.19480014	0.93116547	0.086114876	0.20381656	0.92476398	-0.073053406	0.33501263	0.43252036	0.13698207	0.21260588	0.54396417	0.085709557	0.31799548	0.096346672	0.069857338	0.28972986	0.099905167	0.14804366	0.31687418	0.31072986	0.15657149	0.2435775	0.032004818	0.092267342	0.44792813	0.052872204	0.12034219
1937	19.36	0.34254752	0.41610959	0.016978483	0.060839138	0.62272089	0.082046738	-0.022002666	0.63415582	0.11541959	-0.13277034	0.57145667	-0.01739649	-0.025860603	0.63284583	-0.15818875	0.070881943	0.63389911	-0.11920329	0.21077202	0.90761414	-0.015851136	0.18691734	1.0024536	0.13190875	0.11962383	0.98488367	-0.21121426	0.20113907	0.92844427	0.086431168	0.21017734	0.92201349	-0.072498848	0.33521829	0.43236041	0.13712968	0.21284888	0.54400171	0.08598262	0.31788104	0.096328896	0.069911949	0.28960587	0.099888962	0.14810645	0.31701086	0.31068146	0.15667038	0.24351146	0.031890682	0.092298264	0.44784445	0.053057636	0.12039596
1938	19.37	0.34153253	0.41505426	0.016837658	0.062792652	0.62169073	0.082251167	-0.020133801	0.6342099	0.11541539	-0.13164925	0.57246051	-0.01732189	-0.023901806	0.63320398	-0.15790138	0.072907936	0.63301508	-0.11907922	0.21721367	0.90452606	-0.015403274	0.19447934	0.99994733	0.13193594	0.12721845	0.98331683	-0.21092903	0.20766026	0.92563538	0.086721191	0.21674333	0.91914374	-0.071945213	0.33544519	0.43219275	0.13728596	0.2130984	0.54419067	0.086245934	0.31775903	0.096307381	0.069971146	0.2894765	0.099863754	0.14818221	0.31717365	0.31063062	0.15678035	0.24343887	0.031766172	0.092331047	0.44775519	0.053264565	0.12047265
1939	19.38	0.34064984	0.41409152	0.016734829	0.064879913	0.62062189	0.082465744	-0.018071083	0.63428235	0.115434	-0.13039601	0.57357764	-0.017236492	-0.021755232	0.63360504	-0.15758391	0.075124924	0.6320838	-0.11894421	0.22384526	0.9014126	-0.014942153	0.2022505	0.99733386	0.13194255	0.13503934	0.98168176	-0.21064796	0.21434853	0.92275446	0.086971062	0.22350531	0.91615906	-0.071397751	0.33569913	0.43202194	0.13744656	0.21334415	0.5445318	0.086522133	0.31763071	0.096282166	0.070034912	0.28934732	0.099829521	0.14827197	0.31736835	0.31057678	0.15690233	0.24336055	0.031633017	0.092364143	0.44766589	0.053495102	0.12057516
